<svg viewBox="0 0 100 125" enable-background="new 0 0 100 100"><path d="M55.737,36.729c0,0,5.438,4.358,1.356,17.625c-0.279,0.905-0.092,2.264,1.586,4.745c0,0-1.671,3.728-2.096,5.508  c-0.422,1.779,2.12,2.287,2.627,0.508c0.509-1.78,1.187-4.067,1.187-4.067l1.271,1.018c0,0,2.796,0,2.118-2.12  c0,0-1.356-0.252-1.864-0.931c0,0,8.372-6.229,5.403-15.438c-0.729-2.261-2.143-4.578-4.531-7.15  c10.747-0.819,15.062-1.864,15.062-1.864s-3.784-6.307-13.8-6.647c0,0-7.146-5.118-13.011-0.875l-6.054-4.463  c0,0-3.019-1.559-8.728,5.846c0,0-7.963-6.566-15.759,6.144c0,0,9.759,2.239,28.184,2.324L55.737,36.729z M61.825,44.078  c-0.093-1.677-0.398-3.456-1.028-5.266c0.136,0.117,2.251,1.916,3.254,5.076c1.007,3.179,0.889,7.735-3.504,13.342  c0,0-0.81-1.414-0.929-2.208C59.618,55.021,62.164,50.233,61.825,44.078z M34.448,30.024c0,0-7.372,0.515-7.419,0.517  s-0.305-0.111-0.271-0.182c0.033-0.069,0.211-0.638,1.681-1.261C31.39,27.85,35.5,29.959,34.448,30.024z M46.856,27.746  c-2.388-0.908-6.566-0.496-6.566-0.496c0.052-0.015,2.033-2.039,2.753-2.046C44.325,25.19,49.219,28.644,46.856,27.746z   M20.048,39.149L19,39.147v-3.121l1.001-0.22c0.897,0.199,10.646,2.287,28.514,2.287c0.086,0,0.238,0.016,0.328,0.016  c1.63,0,4.548-0.039,6.016-0.086l0.146,0.241c0.389,0.482,1.021,1.446,1.464,3.011c0.006,0.025,0.012,0.052,0.019,0.077  c-2.423,0.072-7.459,0.225-7.459,0.225C38.308,41.733,28.494,40.757,20.048,39.149z M78.062,36.039L79,36.026v3.121l-1.013-0.004  c-3.264,0.622-6.784,1.119-10.41,1.489c-0.512-0.979-1.139-1.959-1.891-2.952C73.701,36.967,77.442,36.18,78.062,36.039z   M68.376,42.085c2.891-0.306,5.674-0.69,8.337-1.155l-6.408,50.665c0,0-9.413,3.423-21.146,3.493  c-11.732-0.07-21.055-3.493-21.055-3.493L21.66,40.939c8.143,1.419,17.382,2.095,27.499,2.013c0.555,0.004,1.104,0.008,1.653,0.008  c2.081,0,4.12-0.032,6.121-0.098c0.573,3.783-0.333,8.012-1.271,11.06c-0.45,1.462-0.043,3.131,1.321,5.329  c-0.524,1.219-1.521,3.634-1.855,5.036c-0.213,0.891-0.04,1.776,0.484,2.44c0.518,0.656,1.346,1.103,2.214,1.103  c1.336,0,2.445-0.752,2.826-2.084C60.832,65.115,61.034,65,61.22,64h0.449c0.366,0,2.241-0.287,3.208-1.609  c0.378-0.52,0.744-1.625,0.337-2.901l-0.275-0.859l-0.317-0.057c0.733-0.765,1.593-1.782,2.38-3.021  c2.501-3.932,3.105-8.232,1.75-12.436C68.641,42.772,68.515,42.428,68.376,42.085z M72.075,28.354L72.275,5h2.221l-0.002,22.298  L80.716,7.47l1.893,0.991l-6.768,22.341C73.632,28.721,72.005,28.427,72.075,28.354z"/></svg>
